<svg width="29" height="29" viewBox="0 0 29 29" fill="none" xmlns="http://www.w3.org/2000/svg">
<g id="Filled/basket">
<g id="Buy">
<path id="Buy_2" fill-rule="evenodd" clip-rule="evenodd" d="M26.6615 7.663C26.1544 7.06741 25.6473 6.79551 24.874 6.79551H7.75284C7.34716 6.79551 7.01754 6.48476 6.97951 6.06914L6.73864 3.16885C6.7006 2.72863 6.38366 2.36739 5.95262 2.28841L2.92901 1.82359C2.40923 1.74461 1.9148 2.09549 1.82606 2.62505C1.73731 3.14296 2.09229 3.64792 2.59939 3.73855L4.51371 4.07519L5.68005 18.1895C5.81951 19.8986 7.21405 21.218 8.90017 21.218H22.7315C24.3415 21.218 25.7107 20.0151 25.9389 18.3824L27.1433 9.88871C27.2574 9.11315 27.1686 8.2586 26.6615 7.663ZM13.3581 12.9775C13.9887 12.9775 14.5 12.4663 14.5 11.8356C14.5 11.205 13.9887 10.6938 13.3581 10.6938C12.7274 10.6938 12.2162 11.205 12.2162 11.8356C12.2162 12.4663 12.7274 12.9775 13.3581 12.9775ZM19.8287 11.9308C19.8287 12.5614 19.3174 13.0727 18.6868 13.0727C18.0562 13.0727 17.5449 12.5614 17.5449 11.9308C17.5449 11.3002 18.0562 10.7889 18.6868 10.7889C19.3174 10.7889 19.8287 11.3002 19.8287 11.9308ZM13.9505 15.049C14.9792 16.2836 16.8754 16.2836 17.9042 15.049C18.0892 14.827 18.4192 14.797 18.6413 14.982C18.8633 15.1671 18.8933 15.4971 18.7083 15.7191C17.261 17.4558 14.5936 17.4558 13.1463 15.7191C12.9613 15.4971 12.9913 15.1671 13.2134 14.982C13.4354 14.797 13.7654 14.827 13.9505 15.049ZM8.69704 23.2644C7.63212 23.2644 6.77004 24.1448 6.77004 25.2324C6.77004 26.3071 7.63212 27.1875 8.69704 27.1875C9.74928 27.1875 10.6114 26.3071 10.6114 25.2324C10.6114 24.1448 9.74928 23.2644 8.69704 23.2644ZM22.9594 23.2644C21.8945 23.2644 21.0324 24.1448 21.0324 25.2324C21.0324 26.3071 21.8945 27.1875 22.9594 27.1875C24.0117 27.1875 24.8738 26.3071 24.8738 25.2324C24.8738 24.1448 24.0117 23.2644 22.9594 23.2644Z" fill="#2C2F39"/>
</g>
</g>
</svg>
