<svg width="24" height="24" viewBox="0 0 24 24" fill="none" xmlns="http://www.w3.org/2000/svg">
<g clip-path="url(#clip0_1_2196)">
<path d="M20.2528 10H19.6691H19.4572H4.53903H4.14126H3.74721C2.2342 10 1 11.2342 1 12.7472V12.7732C1 14.2825 2.2342 15.5204 3.74721 15.5204H4.1487C4.28625 18.5576 6.79182 20.9777 9.86245 20.9777H13.9517C17.0223 20.9777 19.5279 18.5576 19.6654 15.5204H20.2528C21.7621 15.5204 23 14.2862 23 12.7732V12.7472C23 11.2342 21.7658 10 20.2528 10ZM2.96283 13.5539C2.75093 13.3457 2.63569 13.0669 2.63569 12.7732V12.7472C2.63569 12.4535 2.75093 12.1747 2.96283 11.9628C3.17472 11.7509 3.45353 11.6357 3.74721 11.6357H4.14498V13.8848H3.74721C3.45353 13.8848 3.17472 13.7658 2.96283 13.5539ZM21.3643 12.7732C21.3643 13.0669 21.2491 13.3457 21.0372 13.5576C20.8253 13.7695 20.5465 13.8848 20.2528 13.8848H19.6691V11.6357H20.2528C20.5465 11.6357 20.8253 11.7509 21.0372 11.9628C21.2491 12.1747 21.3643 12.4535 21.3643 12.7472V12.7732Z" fill="#2C2F39"/>
</g>
<path d="M13.8493 7.74999C14.0435 7.91668 14.298 8 14.5527 8C14.807 8 15.0615 7.91674 15.2557 7.75033C15.6027 7.45272 15.7026 6.92716 15.2048 6.49988C14.9167 6.25226 14.9223 5.85688 15.2041 5.6146C15.7174 5.1743 16 4.5888 16 3.9661C16 3.27533 15.6848 2.73016 15.1254 2.24998C14.7371 1.91677 14.1075 1.91665 13.7191 2.24975C13.3307 2.5828 13.3306 3.12297 13.7188 3.45619C13.8075 3.53228 14.0113 3.67958 14.0113 3.9661C14.0113 4.13314 13.9355 4.29011 13.7972 4.40874C12.8005 5.26535 12.6517 6.72191 13.8493 7.74999Z" fill="#2C2F39"/>
<path d="M8.84932 7.74995C9.23748 8.08311 9.86702 8.08345 10.2556 7.75035C10.6027 7.45274 10.7026 6.92718 10.2048 6.49989C9.91667 6.25227 9.92224 5.85689 10.2041 5.61462C10.7174 5.17431 11 4.58881 11 3.96611C11 3.27534 10.6848 2.73016 10.1254 2.24998C9.73708 1.91677 9.10748 1.91665 8.71905 2.24976C8.33063 2.5828 8.3305 3.12298 8.71879 3.45619C8.80749 3.53229 9.01121 3.67959 9.01121 3.96611C9.01121 4.13315 8.93544 4.29011 8.79715 4.40875C7.80054 5.26531 7.6517 6.72187 8.84932 7.74995V7.74995Z" fill="#2C2F39"/>
<defs>
<clipPath id="clip0_1_2196">
<rect width="22" height="10.9777" fill="white" transform="translate(1 10)"/>
</clipPath>
</defs>
</svg>
